# xmcd
#
# Track frame offsets:
# 150
# 22997
# 40862
# 60872
# 83955
# 106597
# 133237
# 147002
# 175587
# 197382
# 212265
# 232672
# 263617
# 285007
# 313672
#
# Disc length: 4197 seconds
#
#
# Revision: 0
# Processed by: cddbd v1.5.2PL0 Copyright (c) Steve Scherf et al.
# Submitted via: FreeRIP 2.944 
#
DISCID=ab10630f
DTITLE=McMurtry-L-Berry4 - Folly-Glory4
DYEAR=2004
DGENRE=Booty Bass
TTITLE0=FG 401
TTITLE1=FG 402
TTITLE2=FG 403
TTITLE3=FG 404
TTITLE4=FG 405
TTITLE5=FG 406
TTITLE6=FG 407
TTITLE7=FG 408
TTITLE8=FG 409
TTITLE9=FG 410
TTITLE10=FG 411
TTITLE11=FG 412
TTITLE12=FG 413
TTITLE13=FG 414
TTITLE14=FG 415
EXTD=Folly and Glory by Larry McMurtry 7 CDs 2004\n4th Berrybender Narrative Simon and Schuster\nread by Alfred Molina - Booty - country
EXTT0=
EXTT1=
EXTT2=
EXTT3=
EXTT4=
EXTT5=
EXTT6=
EXTT7=
EXTT8=
EXTT9=
EXTT10=
EXTT11=
EXTT12=
EXTT13=
EXTT14=
PLAYORDER=
